<svg width="32" height="32" viewBox="0 0 45 45" fill="none" xmlns="http://www.w3.org/2000/svg">
<g clip-path="url(#clip0_8_22)">
<path d="M0.6375 10.2763C0.91475 9.06142 1.5963 7.97674 2.57053 7.19985C3.54477 6.42296 4.75393 5.99992 6 6H39C40.2461 5.99992 41.4552 6.42296 42.4295 7.19985C43.4037 7.97674 44.0853 9.06142 44.3625 10.2763L22.5 23.6385L0.6375 10.2763ZM0.5 13.4167V32.9527L16.4583 23.1683L0.5 13.4167ZM19.0928 24.7825L1.02525 35.8568C1.47165 36.798 2.1762 37.5932 3.0569 38.1496C3.9376 38.7061 4.95823 39.001 6 39H39C40.0416 39.0002 41.0618 38.7047 41.942 38.1477C42.8222 37.5908 43.5262 36.7954 43.972 35.854L25.9045 24.7798L22.5 26.8615L19.0928 24.7798V24.7825ZM28.5417 23.171L44.5 32.9527V13.4167L28.5417 23.1683V23.171Z" fill="white"/>
</g>
<defs>
<clipPath id="clip0_8_22">
<rect width="44" height="44" fill="white" transform="translate(0.5 0.5)"/>
</clipPath>
</defs>
</svg>
