<svg width="32" height="32" viewBox="0 0 45 45" fill="none" xmlns="http://www.w3.org/2000/svg">
<g clip-path="url(#clip0_8_26)">
<path d="M22.5 0.5C10.345 0.5 0.5 10.345 0.5 22.5C0.5 32.235 6.7975 40.4575 15.5425 43.3725C16.6425 43.565 17.055 42.905 17.055 42.3275C17.055 41.805 17.0275 40.0725 17.0275 38.23C11.5 39.2475 10.07 36.8825 9.63 35.645C9.3825 35.0125 8.31 33.06 7.375 32.5375C6.605 32.125 5.505 31.1075 7.3475 31.08C9.08 31.0525 10.3175 32.675 10.73 33.335C12.71 36.6625 15.8725 35.7275 17.1375 35.15C17.33 33.72 17.9075 32.7575 18.54 32.2075C13.645 31.6575 8.53 29.76 8.53 21.345C8.53 18.9525 9.3825 16.9725 10.785 15.4325C10.565 14.8825 9.795 12.6275 11.005 9.6025C11.005 9.6025 12.8475 9.025 17.055 11.8575C18.815 11.3625 20.685 11.115 22.555 11.115C24.425 11.115 26.295 11.3625 28.055 11.8575C32.2625 8.9975 34.105 9.6025 34.105 9.6025C35.315 12.6275 34.545 14.8825 34.325 15.4325C35.7275 16.9725 36.58 18.925 36.58 21.345C36.58 29.7875 31.4375 31.6575 26.5425 32.2075C27.34 32.895 28.0275 34.215 28.0275 36.2775C28.0275 39.22 28 41.585 28 42.3275C28 42.905 28.4125 43.5925 29.5125 43.3725C33.8801 41.8985 37.6754 39.0917 40.3641 35.3473C43.0527 31.603 44.4992 27.1097 44.5 22.5C44.5 10.345 34.655 0.5 22.5 0.5Z" fill="white"/>
</g>
<defs>
<clipPath id="clip0_8_26">
<rect width="44" height="44" fill="white" transform="translate(0.5 0.5)"/>
</clipPath>
</defs>
</svg>
