<svg width="32" height="32" viewBox="0 0 45 45" fill="none" xmlns="http://www.w3.org/2000/svg">
<g clip-path="url(#clip0_8_28)">
<path d="M14.3215 41.75C30.926 41.75 40.0093 27.9917 40.0093 16.0815C40.0093 15.6965 40.0093 15.306 39.9928 14.921C41.7612 13.6408 43.2874 12.0559 44.5 10.2405C42.8481 10.9688 41.0976 11.4489 39.3053 11.665C41.1932 10.5365 42.6072 8.76091 43.2845 6.66825C41.5107 7.71909 39.5693 8.45678 37.5452 8.849C36.1845 7.39981 34.3839 6.43977 32.4222 6.11758C30.4606 5.79539 28.4475 6.12903 26.6947 7.06683C24.9419 8.00462 23.5472 9.49423 22.7267 11.3049C21.9063 13.1156 21.7057 15.1463 22.1562 17.0825C18.5668 16.9025 15.0552 15.97 11.8494 14.3455C8.64349 12.721 5.81488 10.4408 3.547 7.65275C2.39569 9.64123 2.04433 11.9934 2.56428 14.2315C3.08423 16.4696 4.4365 18.426 6.3465 19.7032C4.91523 19.6546 3.51543 19.2703 2.26 18.5812V18.705C2.26247 20.7881 2.98409 22.8064 4.3029 24.4188C5.62171 26.0313 7.45681 27.1389 9.498 27.5545C8.72322 27.7679 7.92288 27.8743 7.11925 27.8708C6.55271 27.8725 5.9873 27.82 5.43075 27.714C6.00766 29.5072 7.131 31.075 8.64343 32.1978C10.1559 33.3207 11.9816 33.9423 13.865 33.9757C10.6655 36.4887 6.71335 37.8516 2.645 37.845C1.92813 37.848 1.21176 37.8067 0.5 37.7212C4.62917 40.3537 9.42457 41.7515 14.3215 41.75Z" fill="white"/>
</g>
<defs>
<clipPath id="clip0_8_28">
<rect width="44" height="44" fill="white" transform="translate(0.5 0.5)"/>
</clipPath>
</defs>
</svg>
