<svg width="32" height="32" viewBox="0 0 45 45" fill="none" xmlns="http://www.w3.org/2000/svg">
<g clip-path="url(#clip0_8_24)">
<path d="M22.6402 5.99725H22.885C25.1455 6.0055 36.5993 6.088 39.6875 6.9185C40.6211 7.17197 41.4718 7.66602 42.1547 8.35128C42.8375 9.03654 43.3286 9.88901 43.5788 10.8235C43.8565 11.8685 44.0518 13.2518 44.1838 14.679L44.2113 14.965L44.2718 15.68L44.2938 15.966C44.4725 18.4795 44.4945 20.8335 44.4972 21.3478V21.554C44.4945 22.0875 44.4697 24.601 44.2718 27.219L44.2498 27.5078L44.225 27.7938C44.0875 29.3668 43.884 30.9288 43.5788 32.0783C43.3293 33.0131 42.8386 33.866 42.1556 34.5514C41.4726 35.2368 40.6215 35.7305 39.6875 35.9833C36.4975 36.8413 24.3727 36.9018 22.6925 36.9045H22.302C21.4522 36.9045 17.9377 36.888 14.2527 36.7615L13.7852 36.745L13.546 36.734L13.0758 36.7148L12.6055 36.6955C9.553 36.5608 6.64625 36.3435 5.307 35.9805C4.37335 35.728 3.52243 35.2347 2.83949 34.5498C2.15655 33.8649 1.66558 33.0126 1.41575 32.0783C1.1105 30.9315 0.907 29.3668 0.7695 27.7938L0.7475 27.505L0.7255 27.219C0.589781 25.3556 0.514575 23.4883 0.5 21.62L0.5 21.2818C0.5055 20.6905 0.5275 18.6473 0.676 16.3923L0.69525 16.109L0.7035 15.966L0.7255 15.68L0.786 14.965L0.8135 14.679C0.9455 13.2518 1.14075 11.8658 1.4185 10.8235C1.66791 9.88863 2.1587 9.03576 2.84166 8.35038C3.52463 7.665 4.37577 7.17121 5.30975 6.9185C6.649 6.561 9.55575 6.341 12.6082 6.2035L13.0758 6.18425L13.5487 6.16775L13.7852 6.1595L14.2555 6.14025C16.8727 6.05603 19.491 6.00928 22.1095 6H22.6402V5.99725ZM18.1 14.8248V28.0743L29.5317 21.4523L18.1 14.8248Z" fill="white"/>
</g>
<defs>
<clipPath id="clip0_8_24">
<rect width="44" height="44" fill="white" transform="translate(0.5 0.5)"/>
</clipPath>
</defs>
</svg>
